<?xml version="1.0" encoding="UTF-8" standalone="no" ?>
<!DOCTYPE svg PUBLIC "-//W3C//DTD SVG 1.1//EN" "http://www.w3.org/Graphics/SVG/1.1/DTD/svg11.dtd">
<svg xmlns="http://www.w3.org/2000/svg" xmlns:xlink="http://www.w3.org/1999/xlink" version="1.1" width="1080" height="1080" viewBox="0 0 1080 1080" xml:space="preserve">
<desc>Created with Fabric.js 5.2.4</desc>
<defs>
</defs>
<rect x="0" y="0" width="100%" height="100%" fill="transparent"></rect>
<g transform="matrix(Infinity NaN NaN Infinity 0 0)" id="fb0dee48-46c2-4612-b9ef-93a2b7a5f056"  >
</g>
<g transform="matrix(1 0 0 1 540 540)" id="69d42bbb-cfca-4646-9135-c2a3d2814ffb"  >
<rect style="stroke: none; stroke-width: 1; stroke-dasharray: none; stroke-linecap: butt; stroke-dashoffset: 0; stroke-linejoin: miter; stroke-miterlimit: 4; fill: rgb(255,255,255); fill-rule: nonzero; opacity: 1; visibility: hidden;" vector-effect="non-scaling-stroke"  x="-540" y="-540" rx="0" ry="0" width="1080" height="1080" />
</g>
<g transform="matrix(1.95 0 0 2.43 1542.23 1755.31)" style="" id="7352b984-00a1-47eb-bd8e-91eff73ba95c"  >
		<text xml:space="preserve" font-family="Lato" font-size="96" font-style="normal" font-weight="700" style="stroke: none; stroke-width: 1; stroke-dasharray: none; stroke-linecap: butt; stroke-dashoffset: 0; stroke-linejoin: miter; stroke-miterlimit: 4; fill: rgb(43,171,156); fill-rule: nonzero; opacity: 1; white-space: pre;" ><tspan x="-69.33" y="30.16" >RR</tspan></text>
</g>
<g transform="matrix(2.11 0 0 2.11 528.6 386.69)"  >
<path style="stroke: none; stroke-width: 1; stroke-dasharray: none; stroke-linecap: butt; stroke-dashoffset: 0; stroke-linejoin: miter; stroke-miterlimit: 4; fill: rgb(255,255,255); fill-rule: nonzero; opacity: 1;" vector-effect="non-scaling-stroke"  transform=" translate(-219.5, -146.6)" d="M 72.2 145.6 C 72.2 146.70456949966157 73.09543050033841 147.6 74.2 147.6 L 364.8 147.6 C 365.89346476200853 147.5736400602359 366.77364006023595 146.6934647620085 366.8 145.6 Z M 72.2 145.6 C 72.2 146.70456949966157 73.09543050033841 147.6 74.2 147.6 L 364.8 147.6 C 365.89346476200853 147.5736400602359 366.77364006023595 146.6934647620085 366.8 145.6 Z M 72.2 145.6 C 72.2 146.70456949966157 73.09543050033841 147.6 74.2 147.6 L 364.8 147.6 C 365.89346476200853 147.5736400602359 366.77364006023595 146.6934647620085 366.8 145.6 Z M 72.2 145.6 C 72.2 146.70456949966157 73.09543050033841 147.6 74.2 147.6 L 364.8 147.6 C 365.89346476200853 147.5736400602359 366.77364006023595 146.6934647620085 366.8 145.6 Z M 72.2 145.6 C 72.2 146.70456949966157 73.09543050033841 147.6 74.2 147.6 L 364.8 147.6 C 365.89346476200853 147.5736400602359 366.77364006023595 146.6934647620085 366.8 145.6 Z M 72.2 145.6 C 72.2 146.70456949966157 73.09543050033841 147.6 74.2 147.6 L 364.8 147.6 C 365.89346476200853 147.5736400602359 366.77364006023595 146.6934647620085 366.8 145.6 Z M 72.2 145.6 C 72.2 146.70456949966157 73.09543050033841 147.6 74.2 147.6 L 364.8 147.6 C 365.89346476200853 147.5736400602359 366.77364006023595 146.6934647620085 366.8 145.6 Z M 72.2 145.6 C 72.2 146.70456949966157 73.09543050033841 147.6 74.2 147.6 L 364.8 147.6 C 365.89346476200853 147.5736400602359 366.77364006023595 146.6934647620085 366.8 145.6 Z M 72.2 145.6 C 72.2 146.70456949966157 73.09543050033841 147.6 74.2 147.6 L 364.8 147.6 C 365.89346476200853 147.5736400602359 366.77364006023595 146.6934647620085 366.8 145.6 Z" stroke-linecap="round" />
</g>
<g transform="matrix(2.11 0 0 2.11 528.6 596.53)"  >
<path style="stroke: none; stroke-width: 1; stroke-dasharray: none; stroke-linecap: butt; stroke-dashoffset: 0; stroke-linejoin: miter; stroke-miterlimit: 4; fill: rgb(253,226,152); fill-rule: nonzero; opacity: 1;" vector-effect="non-scaling-stroke"  transform=" translate(-219.5, -246.05)" d="M 366.2 147 C 365.8307390797928 147.3768285274338 365.3275385338019 147.59248590428706 364.8 147.6 L 74.2 147.6 C 73.09543050033841 147.6 72.2 146.70456949966157 72.2 145.6 L 72.2 336.5 C 72.2 342.02284749830795 76.67715250169206 346.5 82.2 346.5 L 356.8 346.5 C 362.32284749830796 346.5 366.8 342.02284749830795 366.8 336.5 L 366.8 145.6 C 366.79248590428705 146.12753853380184 366.5768285274338 146.6307390797928 366.2 147 Z M 142.6 246.8 L 176.5 261.8 C 178.3793045713028 262.60689689132676 179.59813077717973 264.45479468733373 179.6 266.5 C 179.60419081756552 267.33762884614544 179.3978760607439 268.1628878734319 179 268.9 C 179.70678165986232 269.96851955721854 180.08885036063594 271.2189262142959 180.1 272.5 C 180.10779102923343 274.72609386426416 178.97583839215102 276.8013403655819 177.1 278 C 176.02536794913732 278.69371935525703 174.77884148844547 279.0746024404685 173.5 279.1 C 172.61056151944726 279.088625182083 171.73021669543263 278.9193281005417 170.9 278.6 L 116.1 255 C 113.79639938338717 253.98991779231028 112.30614167795333 251.71531392612178 112.3 249.2 C 112.32194254037103 247.18707432981674 113.28387565239188 245.30020553316044 114.89999999999999 244.1 C 114.8175239738783 243.80751640299982 114.78373930068618 243.50345434427078 114.8 243.2 C 114.80054494887489 241.28559676112135 115.94092173330922 239.5553699157727 117.7 238.79999999999998 L 172.6 215.1 C 174.16614095752834 214.42178936865204 175.96771653948826 214.5719206671487 177.4 215.5 C 178.83080071906082 216.41797754507851 179.6971680204747 218.0000395737473 179.70000000000002 219.7 C 179.7154927902324 220.53895290041987 179.50847147393208 221.3670381656212 179.10000000000002 222.1 C 180.18421032560815 223.72892577783864 180.48719022214144 225.75589305251034 179.92669267871614 227.63066069776048 C 179.36619513529084 229.5054283430106 178.00037565813957 231.0334762173024 176.20000000000002 231.79999999999998 L 142.40000000000003 245.89999999999998 L 141.80000000000004 246.2 C 141.993602718566 246.4823671773157 142.27471874857847 246.69320419982506 142.6 246.8 Z M 247.5 201.10000000000002 L 201.1 298.5 C 200.01378180408994 300.770025504195 197.71649983114997 302.2106938601065 195.2 302.2 C 192.96761262978157 302.2329513875581 190.88091301471908 301.094751597524 189.7 299.2 C 188.5254836772687 297.2977626213903 188.37549927605082 294.9355083022084 189.29999999999998 292.9 L 191.29999999999998 288.79999999999995 C 191.38791460953692 288.3862664820823 191.52209157687895 287.98373558005625 191.7 287.59999999999997 L 238.1 190.19999999999996 C 238.93128124060672 188.46047332501388 240.67243488813955 187.33839652993714 242.6 187.29999999999995 C 244.3192933262407 187.33251454424902 245.91859505502003 188.18795500382868 246.9 189.59999999999997 C 247.79026470073404 191.05110444673755 247.9026543050256 192.84933811540242 247.20000000000002 194.39999999999998 L 247.10000000000002 194.59999999999997 C 247.10000000000002 194.65522847498303 247.14477152501695 194.69999999999996 247.20000000000002 194.69999999999996 C 248.34105123456484 196.65577166422977 248.45309624277766 199.04606517276974 247.5 201.1 Z M 320.8 254.90000000000003 L 265.90000000000003 278.6 C 265.0840267607423 278.96664644725666 264.1937612768096 279.137851348013 263.3 279.1 C 262.0189262142959 279.08885036063594 260.76851955721855 278.7067816598623 259.7 278 C 257.90243903966297 276.8476914253107 256.7829947329168 274.8882527013471 256.7032302259911 272.75455214108445 C 256.6234657190654 270.6208515808218 257.59348989798525 268.5833018854314 259.3 267.3 C 259.3 267 259.2 266.8 259.2 266.5 C 259.1692402548803 264.44512810491005 260.3989637652362 262.58070858920934 262.3 261.8 L 295.8 247.8 C 295.4974894211972 247.3645589388782 295.0828537710515 247.01902923042346 294.6 246.8 L 260.70000000000005 231.8 C 258.3275421633203 230.74759671998925 256.79861501815924 228.39540111204914 256.80000000000007 225.8 C 256.79842319779084 223.7537056165115 257.76201841188373 221.82651518832574 259.4000000000001 220.60000000000002 C 259.4000000000001 220.3 259.30000000000007 220.10000000000002 259.30000000000007 219.8 C 259.33251454424914 218.08070667375932 260.1879550038288 216.48140494497997 261.6000000000001 215.5 C 263.01675634803934 214.5274210071249 264.8418065269062 214.3753334922193 266.4000000000001 215.1 L 321.2000000000001 238.7 C 322.9590782666909 239.4553699157727 324.0994550511252 241.18559676112136 324.1000000000001 243.1 C 324.1041908175656 243.93762884614543 323.89787606074395 244.7628878734319 323.50000000000006 245.5 C 324.2203885844951 246.56205751134786 324.603745263087 247.81667936855763 324.6000000000001 249.1 C 324.6202389995415 251.6231461809048 323.12131598264307 253.91097604880233 320.8 254.9 Z" stroke-linecap="round" />
</g>
<g transform="matrix(2.11 0 0 2.11 528.03 585.87)"  >
<path style="stroke: none; stroke-width: 1; stroke-dasharray: none; stroke-linecap: butt; stroke-dashoffset: 0; stroke-linejoin: miter; stroke-miterlimit: 4; fill: rgb(77,77,77); fill-rule: nonzero; opacity: 1;" vector-effect="non-scaling-stroke"  transform=" translate(-219.38, -241.05)" d="M 246.8 189.6 C 245.88284811927105 188.11767958608053 244.24208169104074 187.2400603337713 242.5 187.29999999999998 C 240.56007807975047 187.29711299492934 238.79879011526208 188.43216523871075 238 190.2 L 191.6 287.6 C 191.42209157687896 287.9837355800563 191.28791460953693 288.38626648208236 191.2 288.8 C 191.0832772174321 289.5324975765166 191.11730516010923 290.28111231541334 191.29999999999998 291 C 191.42358983219484 291.4166172826846 191.59120187046764 291.81888617453933 191.79999999999998 292.2 C 191.79999999999998 292.3 191.89999999999998 292.3 191.89999999999998 292.4 C 192.83664614560982 293.9749986224327 194.57240549588005 294.89735401308263 196.40185134752275 294.79221344689626 C 198.23129719916545 294.6870728807099 199.84995921504287 293.57193465292505 200.59999999999997 291.9 L 245.79999999999995 197.09999999999997 L 246.39999999999995 195.89999999999998 L 246.89999999999995 194.79999999999998 L 246.99999999999994 194.6 C 247.89257861059866 193.03163830426388 247.81499542779613 191.09205873420035 246.8 189.6 Z M 246.3 193.79999999999998 C 246.3 193.89999999999998 246.20000000000002 193.89999999999998 246.20000000000002 193.99999999999997 L 245.8 194.79999999999998 L 245.3 195.79999999999998 L 199.8 291.4 C 199.12933722797004 292.78384031019624 197.7375550136066 293.67303450270623 196.20000000000002 293.7 C 194.80890254194455 293.71842895368394 193.51332384376695 292.99442909293765 192.8 291.8 C 192.62744009969305 291.5548193351042 192.4926085917325 291.2851563191831 192.4 291 C 192.18574936150574 290.3910031420345 192.11725009113133 289.7402600734774 192.20000000000002 289.1 C 192.2399065649807 288.7195320308603 192.34122037934324 288.3480480448644 192.50000000000003 288 L 237.70000000000005 193.1 L 238.90000000000003 190.7 C 239.57066277203 189.31615968980373 240.96244498639345 188.42696549729374 242.50000000000003 188.39999999999998 C 243.8910974580555 188.38157104631603 245.1866761562331 189.10557090706234 245.90000000000003 190.29999999999998 C 246.6810383731085 191.2985624250373 246.83559864148086 192.65096477329539 246.3 193.8 Z" stroke-linecap="round" />
</g>
<g transform="matrix(2.11 0 0 2.11 528.6 386.69)"  >
<path style="stroke: none; stroke-width: 1; stroke-dasharray: none; stroke-linecap: butt; stroke-dashoffset: 0; stroke-linejoin: miter; stroke-miterlimit: 4; fill: rgb(253,226,152); fill-rule: nonzero; opacity: 1;" vector-effect="non-scaling-stroke"  transform=" translate(-219.5, -146.6)" d="M 366.8 145.6 C 366.83519148035447 146.1357304438887 366.6122127216811 146.65601421412657 366.2 147 C 365.8307390797928 147.3768285274338 365.3275385338019 147.59248590428706 364.8 147.6 L 74.2 147.6 C 73.09543050033841 147.6 72.2 146.70456949966157 72.2 145.6 Z" stroke-linecap="round" />
</g>
<g transform="matrix(2.11 0 0 2.11 528.6 386.69)"  >
<path style="stroke: none; stroke-width: 1; stroke-dasharray: none; stroke-linecap: butt; stroke-dashoffset: 0; stroke-linejoin: miter; stroke-miterlimit: 4; fill: rgb(77,77,77); fill-rule: nonzero; opacity: 1;" vector-effect="non-scaling-stroke"  transform=" translate(-219.5, -146.6)" d="M 366.8 145.6 C 366.83519148035447 146.1357304438887 366.6122127216811 146.65601421412657 366.2 147 C 365.8307390797928 147.3768285274338 365.3275385338019 147.59248590428706 364.8 147.6 L 74.2 147.6 C 73.09543050033841 147.6 72.2 146.70456949966157 72.2 145.6 Z" stroke-linecap="round" />
</g>
<g transform="matrix(2.11 0 0 2.11 528.6 328.8)"  >
<path style="stroke: none; stroke-width: 1; stroke-dasharray: none; stroke-linecap: butt; stroke-dashoffset: 0; stroke-linejoin: miter; stroke-miterlimit: 4; fill: rgb(0,105,122); fill-rule: nonzero; opacity: 1;" vector-effect="non-scaling-stroke"  transform=" translate(-219.5, -119.1)" d="M 356.8 92.6 L 82.2 92.6 C 76.67715250169206 92.6 72.2 97.07715250169205 72.2 102.6 L 72.2 145.6 L 366.8 145.6 L 366.8 102.6 C 366.8 97.07715250169205 362.32284749830796 92.6 356.8 92.6 Z M 93.9 129.2 C 89.59217903402147 129.1999998830422 86.10000021177082 125.70782096597853 86.10000021177082 121.39999999999999 C 86.10000021177082 117.09217903402146 89.59217903402147 113.60000011695779 93.9 113.6 C 98.2 113.39999999999999 101.5 117 101.5 121.39999999999999 C 101.550048908106 125.65052369404054 98.15038988029016 129.1396474331147 93.9 129.2 Z M 123.80000000000001 129.2 C 119.49217903402148 129.1999998830422 116.00000021177082 125.70782096597853 116.00000021177082 121.39999999999999 C 116.00000021177082 117.09217903402146 119.49217903402148 113.60000011695779 123.80000000000001 113.6 C 127.9 113.39999999999999 131.4 117 131.4 121.39999999999999 C 131.45004890810603 125.65052369404054 128.05038988029017 129.1396474331147 123.8 129.2 Z M 153.70000000000002 129.2 C 149.39217903402147 129.1999998830422 145.90000021177084 125.70782096597853 145.90000021177084 121.39999999999999 C 145.90000021177084 117.09217903402146 149.39217903402147 113.60000011695779 153.70000000000002 113.6 C 157.8 113.39999999999999 161.3 117 161.3 121.39999999999999 C 161.35004890810603 125.65052369404054 157.95038988029017 129.1396474331147 153.7 129.2 Z" stroke-linecap="round" />
</g>
<g transform="matrix(2.11 0 0 2.11 263.55 332.96)"  >
<path style="stroke: none; stroke-width: 1; stroke-dasharray: none; stroke-linecap: butt; stroke-dashoffset: 0; stroke-linejoin: miter; stroke-miterlimit: 4; fill: rgb(248,87,80); fill-rule: nonzero; opacity: 1;" vector-effect="non-scaling-stroke"  transform=" translate(-93.9, -121.1)" d="M 101.5 121.3 C 101.39023639012129 125.46956315888798 97.94054113692755 128.77154405398645 93.77016707205948 128.69884505065562 C 89.59979300719141 128.6261460473248 86.26728066687454 125.20593601384171 86.30290932020415 121.03508051585673 C 86.33853797353376 116.86422501787176 89.72899257979608 113.50144451144895 93.9 113.5 C 98.2 113.3 101.5 116.9 101.5 121.3 Z" stroke-linecap="round" />
</g>
<g transform="matrix(2.11 0 0 2.11 326.56 332.96)"  >
<path style="stroke: none; stroke-width: 1; stroke-dasharray: none; stroke-linecap: butt; stroke-dashoffset: 0; stroke-linejoin: miter; stroke-miterlimit: 4; fill: rgb(255,245,224); fill-rule: nonzero; opacity: 1;" vector-effect="non-scaling-stroke"  transform=" translate(-123.8, -121.1)" d="M 131.4 121.3 C 131.2902363901213 125.46956315888798 127.84054113692756 128.77154405398645 123.67016707205948 128.69884505065562 C 119.49979300719141 128.6261460473248 116.16728066687455 125.20593601384171 116.20290932020416 121.03508051585673 C 116.23853797353377 116.86422501787176 119.62899257979609 113.50144451144895 123.80000000000001 113.5 C 127.9 113.3 131.4 116.9 131.4 121.3 Z" stroke-linecap="round" />
</g>
<g transform="matrix(2.11 0 0 2.11 389.57 332.96)"  >
<path style="stroke: none; stroke-width: 1; stroke-dasharray: none; stroke-linecap: butt; stroke-dashoffset: 0; stroke-linejoin: miter; stroke-miterlimit: 4; fill: rgb(98,181,127); fill-rule: nonzero; opacity: 1;" vector-effect="non-scaling-stroke"  transform=" translate(-153.7, -121.1)" d="M 161.3 121.3 C 161.1902363901213 125.46956315888798 157.74054113692756 128.77154405398645 153.5701670720595 128.69884505065562 C 149.39979300719142 128.6261460473248 146.06728066687455 125.20593601384171 146.10290932020416 121.03508051585673 C 146.13853797353377 116.86422501787176 149.5289925797961 113.50144451144895 153.70000000000002 113.5 C 157.8 113.3 161.3 116.9 161.3 121.3 Z" stroke-linecap="round" />
</g>
<g transform="matrix(2.11 0 0 2.11 526.02 601.57)"  >
<path style="stroke: none; stroke-width: 1; stroke-dasharray: none; stroke-linecap: butt; stroke-dashoffset: 0; stroke-linejoin: miter; stroke-miterlimit: 4; fill: rgb(0,105,122); fill-rule: nonzero; opacity: 1;" vector-effect="non-scaling-stroke"  transform=" translate(-218.42, -248.5)" d="M 247.5 201.1 L 201.1 298.5 C 200.01378180408994 300.770025504195 197.71649983114997 302.2106938601065 195.2 302.2 C 192.96761262978157 302.2329513875581 190.88091301471908 301.094751597524 189.7 299.2 C 188.5254836772687 297.2977626213903 188.37549927605082 294.9355083022084 189.29999999999998 292.9 L 191.29999999999998 288.79999999999995 C 191.1832772174321 289.53249757651656 191.21730516010922 290.2811123154133 191.39999999999998 290.99999999999994 C 191.52358983219483 291.41661728268457 191.69120187046764 291.8188861745393 191.89999999999998 292.19999999999993 C 191.89999999999998 292.29999999999995 191.99999999999997 292.29999999999995 191.99999999999997 292.3999999999999 C 192.9366461456098 293.9749986224326 194.67240549588004 294.8973540130826 196.50185134752275 294.7922134468962 C 198.33129719916545 294.6870728807098 199.94995921504287 293.571934652925 200.69999999999996 291.8999999999999 L 245.89999999999998 197.0999999999999 L 246.49999999999997 195.89999999999992 L 246.99999999999997 194.79999999999993 C 246.99999999999997 194.855228474983 247.0447715250169 194.89999999999992 247.09999999999997 194.89999999999992 C 248.3258292397476 196.74867508926832 248.4781169651494 199.1091348329963 247.5 201.1 Z" stroke-linecap="round" />
</g>
<g transform="matrix(2.11 0 0 2.11 373.83 629.08)"  >
<path style="stroke: none; stroke-width: 1; stroke-dasharray: none; stroke-linecap: butt; stroke-dashoffset: 0; stroke-linejoin: miter; stroke-miterlimit: 4; fill: rgb(0,105,122); fill-rule: nonzero; opacity: 1;" vector-effect="non-scaling-stroke"  transform=" translate(-146.2, -261.6)" d="M 180.1 272.5 C 180.10779102923343 274.72609386426416 178.97583839215102 276.8013403655819 177.1 278 C 176.02536794913732 278.69371935525703 174.77884148844547 279.0746024404685 173.5 279.1 C 172.61056151944726 279.088625182083 171.73021669543263 278.9193281005417 170.9 278.6 L 116.1 255 C 113.79639938338717 253.98991779231028 112.30614167795333 251.71531392612178 112.3 249.2 C 112.32194254037103 247.18707432981674 113.28387565239188 245.30020553316044 114.89999999999999 244.1 C 114.99999999999999 244.5 115.1 244.79999999999998 115.19999999999999 245.1 C 115.32770076745827 245.42004909298592 115.4957247604616 245.72249228039192 115.69999999999999 246 C 116.22465205582314 246.6899758362034 116.9116853182794 247.2396024461684 117.69999999999999 247.6 L 172.5 271.3 C 173.13002989108196 271.57597114519746 173.81229119854072 271.7124234066892 174.5 271.7 C 175.48912885438423 271.69580015654174 176.45795482897887 271.418992735229 177.3 270.9 C 177.41395397961378 270.7764781239786 177.54951188472765 270.6748096951432 177.70000000000002 270.59999999999997 C 178.00000000000003 270.4 178.20000000000002 270.09999999999997 178.50000000000003 269.9 C 178.7339697907162 269.62409057621915 178.9353027590932 269.3220911236537 179.10000000000002 269 C 179.75732736190926 270.0487507254409 180.10405115044475 271.2622839853151 180.1 272.5 Z" stroke-linecap="round" />
</g>
<g transform="matrix(2.11 0 0 2.11 651.34 571.33)"  >
<path style="stroke: none; stroke-width: 1; stroke-dasharray: none; stroke-linecap: butt; stroke-dashoffset: 0; stroke-linejoin: miter; stroke-miterlimit: 4; fill: rgb(0,105,122); fill-rule: nonzero; opacity: 1;" vector-effect="non-scaling-stroke"  transform=" translate(-277.9, -234.2)" d="M 298.9 243.6 C 298.8768517304143 244.7906347191294 298.4137605329588 245.93055151286592 297.59999999999997 246.79999999999998 C 297.3519313486342 247.0236655024968 297.0841781047793 247.22448043538796 296.79999999999995 247.39999999999998 L 296.19999999999993 247.7 L 295.8999999999999 247.79999999999998 C 295.5974894211971 247.36455893887816 295.1828537710514 247.01902923042343 294.69999999999993 246.79999999999998 L 260.79999999999995 231.79999999999998 C 258.4275421633202 230.74759671998922 256.89861501815915 228.39540111204911 256.9 225.79999999999998 C 256.89842319779075 223.75370561651147 257.86201841188364 221.82651518832571 259.5 220.6 C 259.55306208781883 220.97788159721094 259.653867449383 221.34750125627946 259.8 221.7 C 259.9277007674583 222.02004909298591 260.0957247604616 222.3224922803919 260.3 222.6 C 260.83349123141477 223.4333404556534 261.59787923977484 224.09349373560073 262.5 224.5 L 296.4 239.5 C 297.95555162495447 240.26879561083604 298.92889484550653 241.8650784925414 298.9 243.6 Z" stroke-linecap="round" />
</g>
<g transform="matrix(2.11 0 0 2.11 678.24 630.67)"  >
<path style="stroke: none; stroke-width: 1; stroke-dasharray: none; stroke-linecap: butt; stroke-dashoffset: 0; stroke-linejoin: miter; stroke-miterlimit: 4; fill: rgb(0,105,122); fill-rule: nonzero; opacity: 1;" vector-effect="non-scaling-stroke"  transform=" translate(-290.65, -262.35)" d="M 324.6 249.2 C 324.5938583220467 251.71531392612178 323.1036006166128 253.98991779231028 320.8 255 L 265.90000000000003 278.7 C 265.0840267607423 279.06664644725663 264.1937612768096 279.23785134801295 263.3 279.2 C 262.0189262142959 279.1888503606359 260.76851955721855 278.8067816598623 259.7 278.09999999999997 C 257.90243903966297 276.94769142531067 256.7829947329168 274.98825270134705 256.7032302259911 272.8545521410844 C 256.6234657190654 270.7208515808218 257.59348989798525 268.6833018854314 259.3 267.4 C 259.30522581442466 267.7861566365225 259.40845348619285 268.1646580996727 259.6 268.5 C 259.7277007674583 268.8200490929859 259.89572476046163 269.1224922803919 260.1 269.4 C 260.4950767537138 269.9949371970805 261.0050628029195 270.5049232462862 261.6 270.9 C 262.42769286739934 271.4507860263502 263.4062606080986 271.7303768094072 264.40000000000003 271.7 C 265.0885541431728 271.72221526951404 265.77295589457674 271.5853349192333 266.40000000000003 271.3 L 321.3 247.60000000000002 C 321.5999650584323 247.49372298641572 321.87302473746513 247.3230606870202 322.1 247.10000000000002 C 322.3907831893567 246.89575717574547 322.658965095957 246.6610980074702 322.90000000000003 246.40000000000003 C 323.1669799039657 246.15049712281754 323.37237423027995 245.84240563334617 323.50000000000006 245.50000000000003 C 324.2211583356489 246.598968190412 324.60365469523117 247.88554685446155 324.6 249.2 Z" stroke-linecap="round" />
</g>
<g transform="matrix(2.11 0 0 2.11 402.98 571.43)"  >
<path style="stroke: none; stroke-width: 1; stroke-dasharray: none; stroke-linecap: butt; stroke-dashoffset: 0; stroke-linejoin: miter; stroke-miterlimit: 4; fill: rgb(0,105,122); fill-rule: nonzero; opacity: 1;" vector-effect="non-scaling-stroke"  transform=" translate(-160.05, -234.25)" d="M 180.1 225.8 C 180.08996492716625 228.44533989970705 178.52209628285848 230.8363395822764 176.1 231.9 L 142.3 246 L 141.70000000000002 246.3 C 141.41941554367173 246.11925807405845 141.18074192594162 245.8805844563283 141.00000000000003 245.60000000000002 C 140.79809283791357 245.35704823964667 140.62990743266178 245.0879515912438 140.50000000000003 244.8 C 140.17090821179403 244.14891379991772 139.99962643374164 243.42953033209764 140.00000000000003 242.70000000000002 C 140.01061521599513 240.8904380161836 141.11836411111773 239.2683771340398 142.80000000000004 238.60000000000002 L 176.60000000000002 224.50000000000003 C 177.02090285934437 224.3045008607123 177.42264441949197 224.07015161729288 177.8 223.80000000000004 C 178.10000000000002 223.60000000000005 178.3 223.30000000000004 178.60000000000002 223.10000000000005 L 179.20000000000002 222.20000000000005 C 179.77800983499944 223.31287505368186 180.0863027703257 224.54604679498692 180.1 225.8 Z" stroke-linecap="round" />
</g>
<g transform="matrix(2.11 0 0 2.11 376.04 590.31)"  >
<path style="stroke: none; stroke-width: 1; stroke-dasharray: none; stroke-linecap: butt; stroke-dashoffset: 0; stroke-linejoin: miter; stroke-miterlimit: 4; fill: rgb(77,77,77); fill-rule: nonzero; opacity: 1;" vector-effect="non-scaling-stroke"  transform=" translate(-147.25, -243.19)" d="M 176.5 261.8 L 142.6 246.8 C 142.27790887634626 246.63530275909318 141.97590942378082 246.4339697907162 141.7 246.20000000000002 C 141.4194155436717 246.01925807405846 141.18074192594156 245.7805844563283 141 245.50000000000003 C 140.79809283791354 245.25704823964668 140.62990743266175 244.9879515912438 140.5 244.70000000000002 C 140.170908211794 244.04891379991773 139.9996264337416 243.32953033209765 140 242.60000000000002 C 140.0106152159951 240.7904380161836 141.1183641111177 239.16837713403982 142.8 238.50000000000003 L 176.60000000000002 224.40000000000003 C 177.02090285934437 224.2045008607123 177.42264441949197 223.97015161729288 177.8 223.70000000000005 C 178.10000000000002 223.50000000000006 178.3 223.20000000000005 178.60000000000002 223.00000000000006 L 179.20000000000002 222.10000000000005 C 179.60847147393207 221.36703816562127 179.81549279023238 220.53895290041993 179.8 219.70000000000005 C 179.7971680204747 218.00003957374736 178.9308007190608 216.41797754507857 177.5 215.50000000000006 C 176.06771653948826 214.57192066714876 174.26614095752834 214.4217893686521 172.7 215.10000000000005 L 117.6 238.80000000000004 C 115.84092173330922 239.55536991577276 114.70054494887488 241.2855967611214 114.69999999999999 243.20000000000005 C 114.68373930068617 243.50345434427084 114.71752397387829 243.80751640299988 114.79999999999998 244.10000000000005 C 114.89999999999998 244.50000000000006 114.99999999999999 244.80000000000004 115.09999999999998 245.10000000000005 C 115.22770076745826 245.42004909298598 115.39572476046159 245.72249228039198 115.59999999999998 246.00000000000006 C 116.12465205582313 246.68997583620344 116.81168531827939 247.23960244616845 117.59999999999998 247.60000000000005 L 172.39999999999998 271.30000000000007 C 173.03002989108194 271.5759711451975 173.7122911985407 271.71242340668925 174.39999999999998 271.70000000000005 C 175.3891288543842 271.6958001565418 176.35795482897885 271.41899273522904 177.2 270.90000000000003 C 177.31395397961376 270.7764781239787 177.44951188472763 270.67480969514327 177.6 270.6 C 177.9 270.40000000000003 178.1 270.1 178.4 269.90000000000003 C 178.63396979071618 269.6240905762192 178.83530275909317 269.32209112365376 179 269.00000000000006 C 179.40847147393205 268.2670381656213 179.61549279023237 267.43895290041996 179.6 266.6000000000001 C 179.62772889573316 264.52167279625866 178.40577080101193 262.62960864959354 176.5 261.8 Z M 178.3 268 C 178.19449828073755 268.33011656835566 178.02455089503124 268.636021862627 177.8 268.9 C 177.61925807405845 269.1805844563283 177.3805844563283 269.4192580740584 177.10000000000002 269.59999999999997 C 176.98604602038625 269.7235218760213 176.85048811527238 269.82519030485673 176.70000000000002 269.9 C 175.54774690708592 270.6918173358176 174.05979864906368 270.80627489412694 172.8 270.2 L 118 246.6 C 117.4015698912661 246.34152849323328 116.88353003047008 245.92709660459647 116.5 245.4 C 116.29572476046161 245.12249228039192 116.12770076745828 244.82004909298593 116 244.5 C 115.87675092545571 244.18052368302435 115.80910713002667 243.84230470587917 115.8 243.5 L 115.8 243.1 C 115.8044169971125 241.58035531479047 116.70686789441446 240.2070604710701 118.1 239.6 L 173 215.9 C 173.5108426586689 215.7042059951071 174.05292693901532 215.60256519254216 174.6 215.6 C 175.39241675958374 215.5704397880803 176.1703625794603 215.81796800349557 176.79999999999998 216.29999999999998 C 177.95161402993756 217.04211602372396 178.63364382423643 218.33039452406624 178.6 219.7 C 178.5974280354586 220.2146435511281 178.49556570624182 220.72395519721198 178.29999999999998 221.2 C 178.19449828073752 221.53011656835565 178.0245508950312 221.83602186262698 177.79999999999998 222.1 C 177.61925807405842 222.38058445632828 177.38058445632828 222.61925807405842 177.1 222.79999999999998 C 176.83105709716637 223.0917034812662 176.483946790686 223.2999696651544 176.1 223.39999999999998 L 142.3 237.49999999999997 C 140.25233687895422 238.31644556136501 138.90652507493317 240.29558056727834 138.9 242.49999999999997 C 138.86981883447828 243.4801176239292 139.11213773680825 244.44939323324914 139.6 245.29999999999998 L 140.2 246.2 C 140.40758901243487 246.4577307639234 140.64226923607657 246.6924109875651 140.89999999999998 246.89999999999998 C 141.27614925074369 247.20081689997224 141.67765007281645 247.46848411468744 142.09999999999997 247.7 L 175.99999999999997 262.7 C 177.5133629462036 263.35858505405236 178.4942642098798 264.8495549748401 178.49999999999997 266.5 C 178.58232417442304 267.0087879792484 178.51275511485764 267.530555925989 178.3 268 Z" stroke-linecap="round" />
</g>
<g transform="matrix(2.11 0 0 2.11 375.93 590.11)"  >
<path style="stroke: none; stroke-width: 1; stroke-dasharray: none; stroke-linecap: butt; stroke-dashoffset: 0; stroke-linejoin: miter; stroke-miterlimit: 4; fill: rgb(255,245,224); fill-rule: nonzero; opacity: 1;" vector-effect="non-scaling-stroke"  transform=" translate(-147.2, -243.09)" d="M 178.6 266.5 C 178.5974280354586 267.0146435511281 178.49556570624182 267.523955197212 178.29999999999998 268 C 178.1722992325417 268.3200490929859 178.00427523953837 268.6224922803919 177.79999999999998 268.9 C 177.61925807405842 269.1805844563283 177.38058445632828 269.4192580740584 177.1 269.59999999999997 C 176.98604602038623 269.7235218760213 176.85048811527236 269.82519030485673 176.7 269.9 C 175.5477469070859 270.6918173358176 174.05979864906365 270.80627489412694 172.79999999999998 270.2 L 118 246.6 C 117.4015698912661 246.34152849323328 116.88353003047008 245.92709660459647 116.5 245.4 C 116.29572476046161 245.12249228039192 116.12770076745828 244.82004909298593 116 244.5 C 115.87675092545571 244.18052368302435 115.80910713002667 243.84230470587917 115.8 243.5 L 115.8 243.1 C 115.8044169971125 241.58035531479047 116.70686789441446 240.2070604710701 118.1 239.6 L 173 215.9 C 173.5108426586689 215.7042059951071 174.05292693901532 215.60256519254216 174.6 215.6 C 175.39241675958374 215.5704397880803 176.1703625794603 215.81796800349557 176.79999999999998 216.29999999999998 C 177.95161402993756 217.04211602372396 178.63364382423643 218.33039452406624 178.6 219.7 C 178.5974280354586 220.2146435511281 178.49556570624182 220.72395519721198 178.29999999999998 221.2 C 178.19449828073752 221.53011656835565 178.0245508950312 221.83602186262698 177.79999999999998 222.1 C 177.61925807405842 222.38058445632828 177.38058445632828 222.61925807405842 177.1 222.79999999999998 C 176.83105709716637 223.0917034812662 176.483946790686 223.2999696651544 176.1 223.39999999999998 L 142.3 237.49999999999997 C 140.25233687895422 238.31644556136501 138.90652507493317 240.29558056727834 138.9 242.49999999999997 C 138.86981883447828 243.4801176239292 139.11213773680825 244.44939323324914 139.6 245.29999999999998 L 140.2 246.2 C 140.40758901243487 246.4577307639234 140.64226923607657 246.6924109875651 140.89999999999998 246.89999999999998 C 141.27614925074369 247.20081689997224 141.67765007281645 247.46848411468744 142.09999999999997 247.7 L 175.99999999999997 262.7 C 177.54561650193034 263.33643865938814 178.56671258609975 264.82880985932803 178.6 266.5 Z" stroke-linecap="round" />
</g>
<g transform="matrix(2.11 0 0 2.11 528.05 585.87)"  >
<path style="stroke: none; stroke-width: 1; stroke-dasharray: none; stroke-linecap: butt; stroke-dashoffset: 0; stroke-linejoin: miter; stroke-miterlimit: 4; fill: rgb(255,245,224); fill-rule: nonzero; opacity: 1;" vector-effect="non-scaling-stroke"  transform=" translate(-219.39, -241.05)" d="M 246.3 193.8 C 246.3 193.9 246.20000000000002 193.9 246.20000000000002 194 L 245.8 194.8 L 245.3 195.8 L 199.8 291.4 C 199.12933722797004 292.78384031019624 197.7375550136066 293.67303450270623 196.20000000000002 293.7 C 194.80890254194455 293.71842895368394 193.51332384376695 292.99442909293765 192.8 291.8 C 192.62744009969305 291.5548193351042 192.4926085917325 291.2851563191831 192.4 291 C 192.18574936150574 290.3910031420345 192.11725009113133 289.7402600734774 192.20000000000002 289.1 C 192.2399065649807 288.7195320308603 192.34122037934324 288.3480480448644 192.50000000000003 288 L 237.70000000000005 193.1 L 238.90000000000003 190.7 C 239.57066277203 189.31615968980373 240.96244498639345 188.42696549729374 242.50000000000003 188.39999999999998 C 243.8910974580555 188.38157104631603 245.1866761562331 189.10557090706234 245.90000000000003 190.29999999999998 C 246.6810383731085 191.2985624250373 246.83559864148086 192.65096477329539 246.3 193.8 Z" stroke-linecap="round" />
</g>
<g transform="matrix(2.11 0 0 2.11 680.66 590.52)"  >
<path style="stroke: none; stroke-width: 1; stroke-dasharray: none; stroke-linecap: butt; stroke-dashoffset: 0; stroke-linejoin: miter; stroke-miterlimit: 4; fill: rgb(77,77,77); fill-rule: nonzero; opacity: 1;" vector-effect="non-scaling-stroke"  transform=" translate(-291.8, -243.29)" d="M 321.2 238.8 L 266.4 215.20000000000002 C 264.8236848362834 214.511114372788 263.00558820917746 214.66853086600042 261.57113542812635 215.61809819993564 C 260.1366826470753 216.56766553387087 259.28158646450095 218.17982737946087 259.29999999999995 219.9 C 259.28376941877036 220.17054990883398 259.31767192063364 220.44176992374054 259.4 220.70000000000002 C 259.4530620878188 221.07788159721096 259.55386744938295 221.44750125627948 259.7 221.8 C 259.8277007674583 222.12004909298594 259.9957247604616 222.42249228039194 260.2 222.70000000000002 C 260.73349123141475 223.53334045565342 261.4978792397748 224.19349373560075 262.4 224.60000000000002 L 296.29999999999995 239.60000000000002 C 297.9860389367447 240.30206042535494 299.06128249291044 241.97466151272388 298.99999999999994 243.8 C 298.97685173041424 244.99063471912942 298.51376053295877 246.13055151286594 297.69999999999993 247 C 297.45193134863416 247.22366550249683 297.1841781047793 247.42448043538798 296.8999999999999 247.6 L 296.2999999999999 247.9 L 295.9999999999999 248 L 262.4999999999999 262 C 260.5989637652361 262.7807085892093 259.3692402548802 264.6451281049101 259.39999999999986 266.7 C 259.38376941877027 266.97054990883396 259.41767192063355 267.24176992374055 259.4999999999999 267.5 C 259.50522581442453 267.8861566365225 259.60845348619273 268.2646580996727 259.7999999999999 268.6 C 259.9277007674582 268.92004909298595 260.0957247604615 269.2224922803919 260.2999999999999 269.5 C 260.6950767537137 270.0949371970805 261.2050628029194 270.6049232462862 261.7999999999999 271 C 262.6276928673992 271.55078602635024 263.60626060809847 271.8303768094072 264.5999999999999 271.8 C 265.2885541431727 271.82221526951406 265.9729558945766 271.6853349192333 266.5999999999999 271.40000000000003 L 321.4999999999999 247.70000000000005 C 321.7999650584322 247.59372298641574 322.073024737465 247.4230606870202 322.2999999999999 247.20000000000005 C 322.59078318935656 246.9957571757455 322.8589650959569 246.76109800747022 323.0999999999999 246.50000000000006 C 323.36697990396556 246.25049712281756 323.5723742302798 245.9424056333462 323.69999999999993 245.60000000000005 C 324.108471473932 244.86703816562127 324.3154927902323 244.03895290041993 324.29999999999995 243.20000000000005 C 324.15214182693177 241.2756782883493 322.9623016605598 239.58687289091804 321.2 238.8 Z M 322.7 244.70000000000002 C 322.5 245.00000000000003 322.4 245.3 322.2 245.60000000000002 C 321.9924109875651 245.85773076392343 321.7577307639234 246.09241098756513 321.5 246.3 C 321.27955236837323 246.45471537869125 321.0452128161599 246.58862369424173 320.8 246.70000000000002 L 265.90000000000003 270.40000000000003 C 264.6311272659211 270.95552666971304 263.1689819171337 270.84305395057555 262.00000000000006 270.1 C 261.5017888007857 269.76887288430663 261.0902759748115 269.32306732283456 260.80000000000007 268.8 C 260.6254972877517 268.52004256785756 260.49086864760955 268.21712812753753 260.4000000000001 267.90000000000003 C 260.2762965511678 267.5460280577739 260.2088116955566 267.1748613519126 260.2000000000001 266.8 L 260.2000000000001 266.6 C 260.2057357901203 264.9495549748401 261.18663705379646 263.4585850540524 262.7000000000001 262.8 L 296.2000000000001 248.8 L 296.4000000000001 248.70000000000002 C 296.6000000000001 248.60000000000002 296.9000000000001 248.50000000000003 297.1000000000001 248.4 C 297.38417810477944 248.224480435388 297.6519313486343 248.02366550249684 297.9000000000001 247.8 C 299.1274875128298 246.79618040616947 299.8275869685345 245.28543947543832 299.80000000000007 243.70000000000002 L 299.80000000000007 243.60000000000002 C 299.79418858601457 241.42478206852206 298.4977763356768 239.46052108316175 296.50000000000006 238.60000000000002 L 262.6000000000001 223.60000000000002 C 261.8498800227051 223.26424347744265 261.22138606111923 222.70558217825518 260.80000000000007 222.00000000000003 C 260.6254972877517 221.72004256785755 260.49086864760955 221.41712812753755 260.4000000000001 221.10000000000002 C 260.2762965511678 220.7460280577739 260.2088116955566 220.37486135191264 260.2000000000001 220.00000000000003 L 260.2000000000001 219.80000000000004 C 260.1798248365692 218.43359955394826 260.8586081878772 217.15145322369978 262.0000000000001 216.40000000000003 C 262.6941407017317 215.97370843590377 263.4860667465915 215.73268746572904 264.3000000000001 215.70000000000005 C 264.8479086668768 215.69339073649715 265.3917020701048 215.79535199960242 265.90000000000015 216.00000000000006 L 320.70000000000016 239.60000000000005 C 322.0931321055857 240.20706047107015 322.99558300288766 241.58035531479052 323.00000000000017 243.10000000000005 C 323.10620293836564 243.65208017560553 322.99898800994123 244.22389312720207 322.7 244.7 Z" stroke-linecap="round" />
</g>
<g transform="matrix(2.11 0 0 2.11 680.45 590.59)"  >
<path style="stroke: none; stroke-width: 1; stroke-dasharray: none; stroke-linecap: butt; stroke-dashoffset: 0; stroke-linejoin: miter; stroke-miterlimit: 4; fill: rgb(255,245,224); fill-rule: nonzero; opacity: 1;" vector-effect="non-scaling-stroke"  transform=" translate(-291.7, -243.32)" d="M 323.1 243.2 C 323.0974348074579 243.74707306098466 322.9957940048929 244.28915734133108 322.8 244.79999999999998 C 322.6 245.1 322.5 245.39999999999998 322.3 245.7 C 322.09241098756513 245.9577307639234 321.8577307639234 246.1924109875651 321.6 246.39999999999998 C 321.37955236837325 246.5547153786912 321.1452128161599 246.6886236942417 320.90000000000003 246.79999999999998 L 266 270.5 C 264.7311272659211 271.055526669713 263.26898191713366 270.9430539505755 262.1 270.2 C 261.60178880078564 269.8688728843066 261.19027597481147 269.4230673228345 260.90000000000003 268.9 C 260.7254972877517 268.6200425678575 260.5908686476095 268.3171281275375 260.50000000000006 268 C 260.37629655116774 267.6460280577739 260.3088116955566 267.2748613519126 260.30000000000007 266.9 L 260.30000000000007 266.7 C 260.30573579012025 265.0495549748401 261.2866370537964 263.55858505405234 262.80000000000007 262.9 L 296.30000000000007 248.89999999999998 L 296.50000000000006 248.79999999999998 C 296.70000000000005 248.7 297.00000000000006 248.6 297.20000000000005 248.49999999999997 C 297.4841781047794 248.32448043538795 297.7519313486343 248.1236655024968 298.00000000000006 247.89999999999998 C 299.2274875128298 246.89618040616944 299.92758696853446 245.3854394754383 299.90000000000003 243.79999999999998 L 299.90000000000003 243.7 C 299.89418858601454 241.52478206852203 298.59777633567677 239.56052108316172 296.6 238.7 L 262.70000000000005 223.7 C 261.9498800227051 223.3642434774426 261.3213860611192 222.80558217825515 260.90000000000003 222.1 C 260.7254972877517 221.8200425678575 260.5908686476095 221.51712812753752 260.50000000000006 221.2 C 260.37629655116774 220.84602805777388 260.3088116955566 220.4748613519126 260.30000000000007 220.1 L 260.30000000000007 219.9 C 260.27982483656916 218.53359955394822 260.9586081878772 217.25145322369974 262.1000000000001 216.5 C 262.7941407017317 216.07370843590374 263.5860667465915 215.832687465729 264.4000000000001 215.8 C 264.94790866687674 215.79339073649712 265.4917020701048 215.89535199960238 266.0000000000001 216.10000000000002 L 320.8000000000001 239.70000000000002 C 322.21295773631164 240.28329753873555 323.12526199949184 241.67158663487945 323.1 243.2 Z" stroke-linecap="round" />
</g>
</svg>